<svg width="124" height="105" viewBox="0 0 124 105" xmlns="http://www.w3.org/2000/svg"
  xmlns:xlink="http://www.w3.org/1999/xlink">
  <defs>
    <linearGradient x1="50%" y1="0%" x2="50%" y2="100%" id="a">
      <stop stop-color="#2DC2FF" offset="0%" />
      <stop stop-color="#005FE7" offset="100%" />
    </linearGradient>
    <linearGradient x1="40.004%" y1="74.166%" x2="24.239%" y2="100%" id="c">
      <stop stop-color="#00AAE7" stop-opacity="0" offset="0%" />
      <stop stop-color="#00AAE7" offset="100%" />
    </linearGradient>
    <path
      d="M71.4689006,0 C73.4494763,0 75.3453744,0.783187808 76.7468153,2.17142336 L76.9532717,2.38417429 L107.455323,35.0836018 C110.153596,37.9762587 110.133127,42.4517028 107.452102,45.3188267 L107.265183,45.5117827 L75.4929781,77.1578814 C74.710378,77.9373754 73.4440505,77.9348573 72.6645566,77.1522572 C72.2958087,76.7820399 72.0865923,76.2822107 72.0816683,75.7597056 L71.9353049,60.2286811 C71.9201044,58.6157183 72.5549926,57.0645707 73.6967487,55.9251528 L87.8868432,41.7641182 C89.4133168,40.2407706 89.4573811,37.7815648 87.9864606,36.2045096 L68.209,15 L68.209,15 L60,15 C58.3431458,15 57,16.3431458 57,18 L57,71.5 L57,71.5 C57,81.6049902 65.1016943,89.8177283 75.1638763,89.9970078 L75.5,90 L105.64587,90 C108.417686,90 111.065162,91.1504668 112.956423,93.1768175 L123.991393,105 L123.991393,105 L75.5,105 C57.1834763,105 42.3003195,90.3000085 42.004488,72.0539838 L42,71.5 L42,8.5 C42,3.89093272 45.668453,0.138678545 50.2448397,0.00375659744 L50.5,0 L71.4689006,0 Z"
      id="b" />
    <path
      d="M29.4689006,0 C31.4494763,0 33.3453744,0.783187808 34.7468153,2.17142336 L34.9532717,2.38417429 L65.4553232,35.0836018 C68.1535958,37.9762587 68.1331274,42.4517028 65.4521022,45.3188267 L65.265183,45.5117827 L33.4929781,77.1578814 C32.710378,77.9373754 31.4440505,77.9348573 30.6645566,77.1522572 C30.2958087,76.7820399 30.0865923,76.2822107 30.0816683,75.7597056 L29.9353049,60.2286811 C29.9201044,58.6157183 30.5549926,57.0645707 31.6967487,55.9251528 L45.8868432,41.7641182 C47.4133168,40.2407706 47.4573811,37.7815648 45.9864606,36.2045096 L26.209,15 L26.209,15 L18,15 C16.3431458,15 15,16.3431458 15,18 L15,71.5 L15,71.5 C15,81.6049902 23.1016943,89.8177283 33.1638763,89.9970078 L33.5,90 L63.6458703,90 C66.4176863,90 69.0651623,91.1504668 70.956423,93.1768175 L81.9913933,105 L81.9913933,105 L33.5,105 C15.1834763,105 0.300319525,90.3000085 0.00448804288,72.0539838 L0,71.5 L0,8.5 C0,3.89093272 3.66845296,0.138678545 8.24483973,0.00375659744 L8.5,0 L29.4689006,0 Z"
      id="d" />
  </defs>
  <g transform="translate(0 -9)" fill="none" fill-rule="evenodd">
    <rect fill="#D8D8D8" opacity="0" width="124" height="124" />
    <g transform="translate(0 9)" fill-rule="nonzero">
      <g transform="rotate(-180 82.996 52.5)">
        <use fill="url(#a)" xlink:href="#b" />
        <use fill="url(#c)" xlink:href="#b" />
      </g>
      <use fill="url(#a)" xlink:href="#d" />
      <use fill="url(#c)" xlink:href="#d" />
    </g>
  </g>
</svg>