<svg width="60" height="40" viewBox="-15 -10 60 40" xmlns="http://www.w3.org/2000/svg">
  <path fill="#00A6E0" fill-rule="evenodd"
    d="M30.520525,0.2356 C30.006775,0.05935 29.581775,0.2741 29.338025,0.45735 C25.957025,4.4536 20.905275,6.99135 15.260275,6.99135 C13.320775,6.99135 11.451275,6.69185 9.695525,6.13635 C9.238275,4.4771 8.915025,3.2991 8.915025,3.2991 C8.915025,3.2991 8.535275,2.1431 7.250025,2.34135 L7.619525,5.3361 C5.127025,4.19885 2.931025,2.5236 1.182525,0.45685 C0.938525,0.2741 0.513775,0.05935 2.50000001e-05,0.2356 C1.460525,4.14235 4.378775,7.3366 8.092025,9.16035 L9.104775,17.36185 C9.104775,17.36185 9.557525,20.5001 12.502025,20.5001 L18.800025,20.5001 C21.744525,20.5001 22.197275,17.36185 22.197275,17.36185 L22.909025,11.48435 C20.996775,11.3286 19.794275,12.6611 19.412775,13.9761 C18.772525,16.19035 18.773275,16.33185 18.647025,16.7181 C18.388525,17.50885 17.540275,17.6031 17.540275,17.6031 L13.762025,17.6031 C13.762025,17.6031 12.913275,17.50885 12.654775,16.7181 C12.488275,16.20885 11.656775,13.22985 10.819775,10.2076 C12.231525,10.60685 13.721025,10.8211 15.260275,10.8211 C22.249525,10.8211 28.209025,6.41835 30.520525,0.2356">
  </path>
</svg>